<svg width="31" height="30" viewBox="0 0 31 30" fill="none" xmlns="http://www.w3.org/2000/svg">
<g clip-path="url(#clip0_3737_30226)">
<path d="M15.333 0C7.08301 0 0.333008 6.75 0.333008 15C0.333008 23.25 7.08301 30 15.333 30C23.583 30 30.333 23.25 30.333 15C30.333 6.75 23.583 0 15.333 0ZM15.333 4.5C17.883 4.5 19.833 6.45 19.833 9C19.833 11.55 17.883 13.5 15.333 13.5C12.783 13.5 10.833 11.55 10.833 9C10.833 6.45 12.783 4.5 15.333 4.5ZM15.333 25.8C11.583 25.8 8.28301 23.8501 6.33301 21C6.33301 18 12.333 16.35 15.333 16.35C18.333 16.35 24.333 18 24.333 21C22.383 23.85 19.083 25.8 15.333 25.8Z" fill="#6D6E71"/>
</g>
<defs>
<clipPath id="clip0_3737_30226">
<rect width="30" height="30" fill="white" transform="translate(0.333008)"/>
</clipPath>
</defs>
</svg>
