<svg width="14" height="16" viewBox="0 0 14 16" fill="none" xmlns="http://www.w3.org/2000/svg">
<g clip-path="url(#clip0_3737_30300)">
<path d="M7.2974 3.00757C5.7332 3.00757 4.46045 4.27265 4.46045 5.82742C4.46045 7.3822 5.7332 8.64728 7.2974 8.64728C8.86159 8.64728 10.1343 7.3822 10.1343 5.82742C10.1343 4.27265 8.86159 3.00757 7.2974 3.00757Z" fill="#6D6E71"/>
<path d="M6.66001 12.6355L6.64477 12.6216L6.2833 12.2965L5.43264 11.5315L4.50771 11.6304L3.94169 11.6907L3.8075 11.7052L3.37535 11.7513L2.0144 14.6259L4.12196 14.6536L5.48611 16.25L7.03704 12.9745L6.66001 12.6355Z" fill="#6D6E71"/>
<path d="M11.2193 11.7513L10.7872 11.7052L10.653 11.691L10.0869 11.6304L9.16201 11.5315L8.31136 12.2965L7.94989 12.6216L7.93465 12.6355L7.55762 12.9745L9.10855 16.25L10.4727 14.6536L12.5803 14.6259L11.2193 11.7513Z" fill="#6D6E71"/>
<path d="M12.2659 5.82735L13.1123 3.94938L11.317 2.92464L10.8913 0.910672L8.83272 1.13042L7.29738 -0.25L5.76204 1.13046L3.70345 0.910704L3.27778 2.92464L1.48242 3.94935L2.32886 5.82732L1.48242 7.70529L3.27778 8.73L3.70345 10.744L3.86037 10.7272L4.42672 10.6666L4.99274 10.6064L5.14447 10.5902H5.1448L5.76204 10.5242L6.22629 10.9415L6.71616 11.382L6.86886 11.5193L7.09319 11.721L7.29742 11.9046L7.50164 11.721L7.72597 11.5193L7.87867 11.382L8.2596 11.0398L8.25992 11.0394L8.83275 10.5242L9.8332 10.6309H9.83352L9.93532 10.6418L10.1681 10.6667H10.1684L10.7344 10.7272L10.8913 10.744L11.317 8.73003L13.1124 7.70532L12.2659 5.82735ZM7.29738 9.61391C5.19696 9.61391 3.48784 7.91541 3.48784 5.82732C3.48784 3.73955 5.19696 2.04073 7.29738 2.04073C9.3978 2.04073 11.1069 3.73955 11.1069 5.82732C11.1069 7.91541 9.3978 9.61391 7.29738 9.61391Z" fill="#6D6E71"/>
</g>
<defs>
<clipPath id="clip0_3737_30300">
<rect width="13" height="16" fill="white" transform="translate(0.665771)"/>
</clipPath>
</defs>
</svg>
