<svg width="15" height="12" viewBox="0 0 15 12" fill="none" xmlns="http://www.w3.org/2000/svg">
<g clip-path="url(#clip0_3802_28192)">
<path d="M12.8755 0H2.11159C0.95279 0 0 1.00056 0 2.21746V9.7893C0 11.0062 0.95279 12.0068 2.11159 12.0068H12.9013C14.0601 12.0068 15.0129 11.0062 15.0129 9.7893V2.21746C14.9871 1.00056 14.0601 0 12.8755 0ZM12.7468 3.6507C11.073 4.92169 9.42489 6.21972 7.75107 7.51775C7.62232 7.62591 7.36481 7.62591 7.23605 7.51775C5.56223 6.21972 3.91416 4.94873 2.24034 3.6507C2.00858 3.48845 1.90558 3.19099 2.06009 2.92056C2.18884 2.67718 2.54936 2.54197 2.75536 2.73127C4.32618 3.94817 5.897 5.16507 7.49356 6.40901C9.06438 5.19211 10.6352 3.97521 12.2318 2.73127C12.4635 2.56901 12.7983 2.70423 12.927 2.92056C13.0815 3.16394 12.9528 3.46141 12.7468 3.6507Z" fill="#6D6E71"/>
</g>
<defs>
<clipPath id="clip0_3802_28192">
<rect width="15" height="12" fill="white"/>
</clipPath>
</defs>
</svg>
