<svg width="25" height="26" viewBox="0 0 25 26" fill="none" xmlns="http://www.w3.org/2000/svg">
<path d="M9.4499 11.5874C9.3249 11.5749 9.1749 11.5749 9.0374 11.5874C7.60266 11.5387 6.24321 10.9335 5.24694 9.89988C4.25067 8.86628 3.69583 7.48549 3.6999 6.04993C3.6999 2.98743 6.1749 0.499926 9.2499 0.499926C10.7202 0.473405 12.1408 1.03204 13.1992 2.05294C14.2576 3.07384 14.8671 4.47338 14.8937 5.94368C14.9202 7.41397 14.3615 8.83458 13.3406 9.89299C12.3197 10.9514 10.9202 11.5609 9.4499 11.5874ZM18.5124 2.99993C20.9374 2.99993 22.8874 4.96243 22.8874 7.37493C22.8874 9.73743 21.0124 11.6624 18.6749 11.7499C18.5669 11.7374 18.4579 11.7374 18.3499 11.7499M3.1999 16.1999C0.174902 18.2249 0.174902 21.5249 3.1999 23.5374C6.6374 25.8374 12.2749 25.8374 15.7124 23.5374C18.7374 21.5124 18.7374 18.2124 15.7124 16.1999C12.2874 13.9124 6.6499 13.9124 3.1999 16.1999ZM20.9249 22.9999C21.8249 22.8124 22.6749 22.4499 23.3749 21.9124C25.3249 20.4499 25.3249 18.0374 23.3749 16.5749C22.6874 16.0499 21.8499 15.6999 20.9624 15.4999" fill="#6D6E71"/>
</svg>
