<svg width="25" height="27" viewBox="0 0 25 27" fill="none" xmlns="http://www.w3.org/2000/svg">
<path fill-rule="evenodd" clip-rule="evenodd" d="M22.9255 0.940939C23.0012 0.658459 23.2915 0.490824 23.574 0.566514C23.8565 0.642204 24.0241 0.932559 23.9484 1.21504L23.8 1.76904L24.2198 1.88154C24.3865 1.92621 24.4854 2.09756 24.4408 2.26427L24.3532 2.59099C24.7889 2.72045 25.0446 3.17424 24.9263 3.61593L23.6928 8.2192C23.6482 8.38591 23.4768 8.48484 23.3101 8.44017C23.2684 8.429 23.231 8.40992 23.199 8.38497C23.1029 8.31011 23.0556 8.18247 23.0891 8.05744L23.25 7.45708L24.3226 3.45417C24.3516 3.34597 24.2935 3.23497 24.1912 3.19557L23.25 6.70835L22.3289 10.146L19.9141 9.49898L21.8382 2.31795L22.026 1.61722C22.0706 1.45052 22.242 1.35158 22.4087 1.39625L22.777 1.49494L22.9255 0.940939ZM18.1823 15.9619L19.64 10.5219L22.0548 11.169L20.5971 16.609C20.4731 17.0717 20.2833 17.5142 20.0334 17.9229L18.3273 20.7135C18.2624 20.8198 18.0989 20.776 18.0957 20.6515L18.0135 17.3817C18.0128 17.3518 18.0123 17.3218 18.0121 17.2919C18.0089 16.8431 18.0661 16.3957 18.1823 15.9619ZM16.3712 15.4766C16.2007 16.1129 16.1226 16.7703 16.1391 17.4288L16.2213 20.6986C16.2715 22.6914 18.8873 23.3923 19.9271 21.6915L21.6332 18.9009C21.9767 18.339 22.2378 17.7305 22.4082 17.0943L23.25 13.9528V22.7499C23.25 24.821 21.5711 26.4999 19.5 26.4999H4.5C2.42893 26.4999 0.75 24.821 0.75 22.7499V5.2499C0.75 3.17883 2.42893 1.4999 4.5 1.4999H19.5C19.7054 1.4999 19.9069 1.51641 20.1033 1.54818L16.3712 15.4766ZM5.75 6.49989C5.05964 6.49989 4.5 7.05954 4.5 7.74989C4.5 8.44025 5.05964 8.99989 5.75 8.99989H15.75C16.4404 8.99989 17 8.44025 17 7.74989C17 7.05954 16.4404 6.49989 15.75 6.49989H5.75ZM4.5 13.9999C4.5 13.3095 5.05964 12.7499 5.75 12.7499H9.5C10.1904 12.7499 10.75 13.3095 10.75 13.9999C10.75 14.6903 10.1904 15.2499 9.5 15.2499H5.75C5.05964 15.2499 4.5 14.6903 4.5 13.9999ZM5.75 18.9999C5.05964 18.9999 4.5 19.5595 4.5 20.2499C4.5 20.9403 5.05964 21.4999 5.75 21.4999H12C12.6904 21.4999 13.25 20.9403 13.25 20.2499C13.25 19.5595 12.6904 18.9999 12 18.9999H5.75Z" fill="#6D6E71"/>
</svg>
