<svg width="11" height="20" viewBox="0 0 11 20" fill="none" xmlns="http://www.w3.org/2000/svg">
<rect y="3" width="11" height="16" rx="1" fill="#6D6E71"/>
<path d="M5.49995 6.25C4.50743 6.25 3.69995 7.05748 3.69995 8.05C3.69995 9.04252 4.50743 9.85 5.49995 9.85C6.49247 9.85 7.29995 9.04252 7.29995 8.05C7.29995 7.05748 6.49247 6.25 5.49995 6.25Z" fill="white"/>
<path d="M7.73955 11.4476C7.24675 11.0078 6.59345 10.7656 5.9 10.7656H5.1C4.40656 10.7656 3.75325 11.0078 3.26045 11.4476C2.77007 11.8852 2.5 12.4629 2.5 13.0742C2.5 13.1713 2.58955 13.25 2.7 13.25H8.3C8.41045 13.25 8.5 13.1713 8.5 13.0742C8.5 12.4629 8.22993 11.8852 7.73955 11.4476Z" fill="white"/>
<rect x="2.5" y="14.25" width="6" height="1.5" fill="white"/>
<rect x="2.5" y="16.25" width="3" height="1.5" fill="white"/>
<rect x="4.25" y="0.75" width="2.5" height="3.5" fill="#6D6E71" stroke="white" stroke-width="0.5"/>
</svg>
