<svg width="15" height="18" viewBox="0 0 15 18" fill="none" xmlns="http://www.w3.org/2000/svg">
<g clip-path="url(#clip0_3737_30230)">
<path d="M12.583 6.8125H11.9997V4.625C11.9997 2.21219 9.90667 0.25 7.33301 0.25C4.75934 0.25 2.66634 2.21219 2.66634 4.625V6.8125H2.08301C1.11856 6.8125 0.333008 7.54823 0.333008 8.45313V16.1094C0.333008 17.0143 1.11856 17.75 2.08301 17.75H12.583C13.5475 17.75 14.333 17.0143 14.333 16.1094V8.45313C14.333 7.54823 13.5475 6.8125 12.583 6.8125ZM4.2219 4.625C4.2219 3.01646 5.61723 1.70833 7.33301 1.70833C9.04879 1.70833 10.4441 3.01646 10.4441 4.625V6.8125H4.2219V4.625ZM8.11079 12.4431V14.1042C8.11079 14.5067 7.76312 14.8333 7.33301 14.8333C6.9029 14.8333 6.55523 14.5067 6.55523 14.1042V12.4431C6.09245 12.1901 5.77745 11.7249 5.77745 11.1875C5.77745 10.3832 6.47512 9.72917 7.33301 9.72917C8.1909 9.72917 8.88856 10.3832 8.88856 11.1875C8.88856 11.7249 8.57356 12.1901 8.11079 12.4431Z" fill="#6D6E71"/>
</g>
<defs>
<clipPath id="clip0_3737_30230">
<rect width="14" height="17.5" fill="white" transform="translate(0.333008 0.25)"/>
</clipPath>
</defs>
</svg>
