<svg width="12" height="12" viewBox="0 0 12 12" fill="none" xmlns="http://www.w3.org/2000/svg">
<g clip-path="url(#clip0_3802_28187)">
<path d="M10.3684 2.39957H2.80428C2.30099 2.39957 2.2477 1.78154 2.67401 1.67954H10.3684C10.478 1.67954 10.5905 1.68554 10.7 1.70054C10.549 0.617489 9.55724 -0.135545 8.49145 0.0204618C8.46184 0.023462 8.4352 0.0294622 8.40559 0.0354625L1.91842 1.32852C1.81776 1.34352 1.71414 1.36152 1.61349 1.38252H1.60757C1.56908 1.38852 1.53355 1.39752 1.49507 1.40652C0.349342 1.68554 0.0148026 2.72958 0.0148026 3.35961V4.08564C0.005921 4.16365 0 4.24165 0 4.31965V10.0799C0 11.139 0.849671 12 1.89474 12H10.3684C11.4135 12 12.2632 11.139 12.2632 10.0799V4.31965C12.2632 3.26061 11.4135 2.39957 10.3684 2.39957ZM8.96217 8.15983C8.43816 8.15983 8.0148 7.73081 8.0148 7.19978C8.0148 6.66876 8.43816 6.23974 8.96217 6.23974C9.48618 6.23974 9.90954 6.66876 9.90954 7.19978C9.90954 7.73081 9.48618 8.15983 8.96217 8.15983Z" fill="#6D6E71"/>
</g>
<defs>
<clipPath id="clip0_3802_28187">
<rect width="12" height="12" fill="white"/>
</clipPath>
</defs>
</svg>
